# xmcd CD database file
#
# Track frame offsets:
#	150
#	17350
#	39845
#	52597
#	68385
#	87030
#	108095
#	125300
#	132905
#	143872
#	151882
#	158785
#	165622
#	176122
#	185425
#	192410
#
# Disc length: 2627 seconds
#
# Revision: 0
# Processed by: cddbd v1.5.1PL2 Copyright (c) Steve Scherf et al.
# Submitted via: CDex 1.51
#
DISCID=ba0a4110
DTITLE=The Carpenters - Sweet Memory Those Days
DYEAR=1900
DGENRE=Pop
TTITLE0=Superstar
TTITLE1=When It's Gone(It's Just Gone)
TTITLE2=Sometimes
TTITLE3=One More Time
TTITLE4=Make Believe It's Your First Time
TTITLE5=Solitaire
TTITLE6=Yesterday Once More
TTITLE7=Fun Fun Fun
TTITLE8=The End Of The World
TTITLE9=Da Doo Ron Ron(When He Walked Me Home)
TTITLE10=Dead Man's Curve
TTITLE11=Johnny Angel
TTITLE12=The Night Has A Thousand Eyes
TTITLE13=Our Day Will Come
TTITLE14=On Fine Day
TTITLE15=Yesterda Once More(Reprise)
EXTD=
EXTT0=
EXTT1=
EXTT2=
EXTT3=
EXTT4=
EXTT5=
EXTT6=
EXTT7=
EXTT8=
EXTT9=
EXTT10=
EXTT11=
EXTT12=
EXTT13=
EXTT14=
EXTT15=
PLAYORDER=
